<svg width="111" height="21" viewBox="0 0 111 21" fill="none" xmlns="http://www.w3.org/2000/svg">
<path d="M4.52566 21H0V0H4.52566C6.3095 0 7.98322 0.28 9.54683 0.84C11.1325 1.38 12.4538 2.13 13.5109 3.09C14.59 4.07 15.4159 5.17 15.9885 6.39C16.5831 7.59 16.8804 8.96 16.8804 10.5C16.8804 12.04 16.5831 13.42 15.9885 14.64C15.4159 15.84 14.59 16.93 13.5109 17.91C12.4538 18.87 11.1325 19.63 9.54683 20.19C7.98322 20.73 6.3095 21 4.52566 21ZM4.29442 18.12C5.74792 18.12 7.03625 17.93 8.1594 17.55C9.28256 17.15 10.2405 16.6 11.0334 15.9C11.8482 15.2 12.4428 14.42 12.8172 13.56C13.2136 12.68 13.4118 11.66 13.4118 10.5C13.4118 9.34 13.2136 8.33 12.8172 7.47C12.4428 6.59 11.8482 5.8 11.0334 5.1C10.2405 4.4 9.28256 3.86 8.1594 3.48C7.03625 3.08 5.74792 2.88 4.29442 2.88H3.33644V18.12H4.29442Z" fill="black"/>
<path d="M32.1929 12.18L28.361 3.6L24.5291 12.18H32.1929ZM36.124 21L33.5143 15.15H23.2077L20.598 21H17.1955L26.5441 0H30.1779L39.5265 21H36.124Z" fill="black"/>
<path d="M54.4519 12.21L62.7765 0H66.7076V21H63.4042V4.44L55.9715 15.33H52.9324L45.5328 4.44V21H42.2294V0H46.1604L54.4519 12.21Z" fill="black"/>
<path d="M75.9992 21H71.4735V0H75.9992C77.783 0 79.4567 0.28 81.0203 0.84C82.606 1.38 83.9273 2.13 84.9844 3.09C86.0635 4.07 86.8894 5.17 87.462 6.39C88.0566 7.59 88.3539 8.96 88.3539 10.5C88.3539 12.04 88.0566 13.42 87.462 14.64C86.8894 15.84 86.0635 16.93 84.9844 17.91C83.9273 18.87 82.606 19.63 81.0203 20.19C79.4567 20.73 77.783 21 75.9992 21ZM75.7679 18.12C77.2214 18.12 78.5097 17.93 79.6329 17.55C80.7561 17.15 81.714 16.6 82.5069 15.9C83.3217 15.2 83.9163 14.42 84.2907 13.56C84.6871 12.68 84.8853 11.66 84.8853 10.5C84.8853 9.34 84.6871 8.33 84.2907 7.47C83.9163 6.59 83.3217 5.8 82.5069 5.1C81.714 4.4 80.7561 3.86 79.6329 3.48C78.5097 3.08 77.2214 2.88 75.7679 2.88H74.8099V18.12H75.7679Z" fill="black"/>
<path d="M103.666 12.18L99.8345 3.6L96.0026 12.18H103.666ZM107.597 21L104.988 15.15H94.6812L92.0715 21H88.669L98.0176 0H101.651L111 21H107.597Z" fill="black"/>
</svg>
