<svg width="15" height="15" viewBox="0 0 15 15" fill="none" xmlns="http://www.w3.org/2000/svg">
<path d="M7.49625 4.00991L7.4962 4.00991C5.73741 3.99362 4.34761 5.37029 4.35108 6.97473L7.49625 4.00991ZM7.49625 4.00991C9.36141 4.027 10.668 5.34705 10.6805 6.94587C10.6929 8.54291 9.31382 9.87844 7.51762 9.87986C5.74567 9.88128 4.35454 8.54063 4.35108 6.97475L7.49625 4.00991Z" stroke="black"/>
<path d="M6.97892 1.48519C6.97892 1.16 6.97651 0.834812 6.97961 0.509944C6.98236 0.224395 7.14291 0.0487473 7.43789 0.00717188C7.74249 -0.0356927 7.92883 0.11675 8.02406 0.379739C8.08904 0.558932 8.09007 0.744249 8.0887 0.930532C8.08595 1.40655 8.10245 1.88322 8.08113 2.3586C8.06429 2.73245 7.81847 2.95612 7.49152 2.94903C7.15151 2.94194 6.98167 2.73471 6.97892 2.32153C6.9772 2.04275 6.97892 1.7643 6.97892 1.48551V1.48519Z" fill="black"/>
<path d="M12.969 11.6527C12.9587 11.8688 12.862 12.0341 12.6454 12.1231C12.4473 12.2044 12.2557 12.1982 12.0934 12.0496C11.5878 11.586 11.0764 11.1272 10.5846 10.6514C10.3511 10.4254 10.3779 10.0855 10.6028 9.89726C10.8078 9.72542 11.1545 9.73541 11.3791 9.94078C11.8506 10.3715 12.3121 10.8122 12.7785 11.2481C12.8981 11.3603 12.9638 11.4938 12.9693 11.6531L12.969 11.6527Z" fill="black"/>
<path d="M6.97918 12.5604C6.97918 12.2471 6.97712 11.9339 6.98022 11.6206C6.98297 11.3505 7.13767 11.1807 7.41065 11.1301C7.68809 11.0788 7.89609 11.1949 8.00198 11.4414C8.04736 11.5468 8.08415 11.6644 8.08346 11.7763C8.08002 12.367 8.11715 12.9587 8.04736 13.5485C8.00714 13.8892 7.8098 14.0764 7.48422 14.0648C7.17962 14.0542 6.98847 13.8595 6.9809 13.5344C6.97334 13.2095 6.97919 12.8846 6.97953 12.5598L6.97918 12.5604Z" fill="black"/>
<path d="M1.56127 7.55659C1.23913 7.55691 0.916651 7.56561 0.594857 7.55466C0.254842 7.54305 0.00558977 7.31874 8.90161e-05 7.04286C-0.00506794 6.77794 0.214274 6.53654 0.545694 6.52687C1.23845 6.50657 1.93326 6.50593 2.62601 6.52945C2.95743 6.54073 3.15099 6.78277 3.13448 7.06639C3.11798 7.34549 2.90001 7.54241 2.56481 7.55369C2.23064 7.56497 1.89578 7.55627 1.56127 7.55659Z" fill="black"/>
<path d="M13.4327 7.55728C13.1233 7.55663 12.8135 7.56533 12.5045 7.55437C12.1263 7.54084 11.8705 7.33264 11.8602 7.05031C11.8492 6.75316 12.1101 6.52434 12.5089 6.51692C13.1274 6.50532 13.7466 6.50597 14.3651 6.51563C14.7656 6.52176 15.0114 6.74349 14.9998 7.05515C14.9888 7.34972 14.7481 7.54471 14.3606 7.55599C14.0516 7.56501 13.7418 7.55792 13.4324 7.55728H13.4327Z" fill="black"/>
<path d="M12.9681 2.40307C12.9729 2.56395 12.9086 2.69774 12.7886 2.81059C12.3319 3.2397 11.8806 3.67398 11.4167 4.09601C11.1371 4.35038 10.8159 4.36005 10.5896 4.14662C10.3585 3.92836 10.3719 3.63529 10.6443 3.37479C11.1055 2.93342 11.5732 2.49818 12.0437 2.06551C12.2053 1.91689 12.3924 1.85627 12.6218 1.95009C12.8395 2.03908 12.9571 2.1819 12.9681 2.40307Z" fill="black"/>
<path d="M2.56367 12.1716C2.37933 12.1571 2.2053 12.0756 2.11348 11.8911C2.01959 11.7022 1.99724 11.4959 2.16232 11.3363C2.66203 10.8527 3.16552 10.3717 3.6869 9.90901C3.91492 9.70654 4.19074 9.72846 4.42632 9.92545C4.64643 10.1095 4.65572 10.4178 4.42632 10.6418C3.94621 11.1109 3.44994 11.5655 2.95745 12.0233C2.8584 12.1155 2.73631 12.1713 2.56332 12.172L2.56367 12.1716Z" fill="black"/>
<path d="M4.59343 3.78775C4.55663 3.98184 4.49094 4.1482 4.28493 4.23847C4.08443 4.32616 3.87739 4.32487 3.72675 4.19011C3.1899 3.70973 2.6558 3.22516 2.15264 2.71415C1.96074 2.51909 1.99272 2.2544 2.20801 2.05451C2.44394 1.83528 2.71323 1.8601 2.94228 2.04742C3.24011 2.29083 3.50974 2.56488 3.79072 2.82667C3.9926 3.01463 4.19139 3.20614 4.39533 3.39216C4.51742 3.50339 4.57245 3.63977 4.59308 3.78807L4.59343 3.78775Z" fill="black"/>
</svg>
