<svg width="20" height="18" viewBox="0 0 20 18" fill="none" xmlns="http://www.w3.org/2000/svg">
<path d="M10.4479 18C15.6756 18 19.9135 13.9706 19.9135 9C19.9135 4.02944 15.6756 0 10.4479 0C5.22028 0 0.982422 4.02944 0.982422 9C0.982422 13.9706 5.22028 18 10.4479 18Z" fill="black"/>
<path d="M12.8724 4.85016C15.1126 5.02516 16.0801 7.74016 14.5236 9.22516C13.4456 10.2502 12.3623 11.2702 11.2843 12.2952C11.1476 12.4252 11.0056 12.5352 10.8057 12.4102C10.6217 12.2902 10.6322 12.1202 10.8373 11.9252C11.4788 11.3152 12.1257 10.7102 12.7672 10.1002C13.1774 9.71016 13.5928 9.32516 13.9977 8.93516C14.8812 8.09016 14.9022 6.83516 14.0503 6.03516C13.1932 5.23016 11.8785 5.24516 10.9845 6.08016C9.55419 7.42016 8.11333 8.75016 6.68824 10.0952C5.82583 10.9102 6.15186 12.2152 7.29824 12.5302C7.8872 12.6952 8.40255 12.5452 8.83902 12.1352C10.201 10.8602 11.563 9.58516 12.9302 8.31516C13.0354 8.22016 13.1406 8.12516 13.2405 8.02516C13.5981 7.66016 13.5981 7.15016 13.2457 6.81516C12.8882 6.47016 12.3255 6.45516 11.9469 6.80516C10.8846 7.79516 9.83815 8.79516 8.78117 9.79016C8.62341 9.94016 8.47091 10.1652 8.20272 9.95516C8.02919 9.82016 8.08177 9.66016 8.371 9.38516C9.4122 8.40016 10.4482 7.41516 11.4946 6.43516C12.3675 5.62016 13.7611 5.98016 14.0556 7.09016C14.187 7.59016 14.0556 8.04516 13.6769 8.40516C12.1835 9.81516 10.69 11.2252 9.17031 12.6102C8.33419 13.3752 7.00902 13.3252 6.21496 12.5502C5.40514 11.7652 5.40514 10.5252 6.24126 9.73516C7.37186 8.66516 8.50772 7.60516 9.64884 6.54516C10.4376 5.81516 11.2632 4.94016 12.4307 4.85516C12.5832 4.84516 12.7304 4.84516 12.8724 4.85516V4.85016Z" fill="white"/>
</svg>
