<svg width="22" height="22" viewBox="0 0 22 22" fill="none" xmlns="http://www.w3.org/2000/svg">
<path d="M7.13004 1.24219H3.04005C2.49912 1.24219 1.98036 1.45789 1.59786 1.84184C1.21537 2.22581 1.00049 2.74656 1.00049 3.28956V7.3952C1.00048 7.93921 1.21502 8.46109 1.5972 8.84677C1.97939 9.2325 2.49813 9.45056 3.04005 9.45342H7.13004C7.67384 9.45342 8.19538 9.23663 8.5799 8.85062C8.96444 8.46462 9.18041 7.94108 9.18041 7.3952V3.28956C9.17756 2.74556 8.96033 2.22484 8.57607 1.84119C8.19186 1.45754 7.67197 1.24218 7.13004 1.24219Z" stroke="white" stroke-width="1.5" stroke-linecap="round" stroke-linejoin="round"/>
<path d="M18.4891 1.24219H14.399C13.8571 1.24218 13.3373 1.45754 12.953 1.84119C12.5688 2.22484 12.3516 2.74556 12.3486 3.28956V7.3952C12.3486 7.94108 12.5647 8.46462 12.9492 8.85062C13.3338 9.23663 13.8553 9.45342 14.399 9.45342H18.4891C19.031 9.45056 19.5497 9.2325 19.932 8.84677C20.3142 8.46109 20.5287 7.93921 20.5287 7.3952V3.28956C20.5287 2.74656 20.3137 2.22581 19.9313 1.84184C19.5488 1.45789 19.03 1.24219 18.4891 1.24219Z" stroke="white" stroke-width="1.5" stroke-linecap="round" stroke-linejoin="round"/>
<path d="M7.13004 12.6333H3.04005C2.49813 12.6363 1.97939 12.8543 1.5972 13.24C1.21502 13.6257 1.00048 14.1476 1.00049 14.6916V18.7973C1.00049 19.3402 1.21537 19.861 1.59786 20.245C1.98036 20.6289 2.49912 20.8446 3.04005 20.8446H7.13004C7.67197 20.8446 8.19186 20.6293 8.57607 20.2457C8.96033 19.862 9.17756 19.3413 9.18041 18.7973V14.6916C9.18041 14.1458 8.96444 13.6222 8.5799 13.2362C8.19538 12.8502 7.67384 12.6333 7.13004 12.6333Z" stroke="white" stroke-width="1.5" stroke-linecap="round" stroke-linejoin="round"/>
<path d="M16.4387 12.6333C15.3539 12.6333 14.3137 13.0659 13.5466 13.8358C12.7796 14.6058 12.3486 15.6501 12.3486 16.739C12.3486 17.8279 12.7796 18.8722 13.5466 19.6421C14.3137 20.4121 15.3539 20.8446 16.4387 20.8446C17.5234 20.8446 18.5637 20.4121 19.3307 19.6421C20.0978 18.8722 20.5287 17.8279 20.5287 16.739C20.5287 15.6501 20.0978 14.6058 19.3307 13.8358C18.5637 13.0659 17.5234 12.6333 16.4387 12.6333Z" stroke="white" stroke-width="1.5" stroke-linecap="round" stroke-linejoin="round"/>
</svg>
