<svg xmlns="http://www.w3.org/2000/svg" xmlns:xlink="http://www.w3.org/1999/xlink">
<symbol id="arrow_back" viewBox="0 0 19 24">
<path fill="#fff" d="M17 13.5a1.5 1.5 0 0 0 0-3v3zM.94 10.94a1.5 1.5 0 0 0 0 2.12l9.545 9.547a1.5 1.5 0 1 0 2.122-2.122L4.12 12l8.486-8.485a1.5 1.5 0 1 0-2.122-2.122L.94 10.94zM17 10.5H2v3h15v-3z"/></symbol>
<symbol id="logo" viewBox="0 0 111 21">
<path fill="#fff" d="M4.526 21H0V0h4.526c1.784 0 3.457.28 5.02.84 1.587.54 2.908 1.29 3.965 2.25 1.079.98 1.905 2.08 2.478 3.3.594 1.2.891 2.57.891 4.11 0 1.54-.297 2.92-.891 4.14-.573 1.2-1.399 2.29-2.478 3.27-1.057.96-2.378 1.72-3.964 2.28-1.564.54-3.238.81-5.021.81zm-.232-2.88c1.454 0 2.742-.19 3.865-.57 1.124-.4 2.082-.95 2.874-1.65.815-.7 1.41-1.48 1.784-2.34.397-.88.595-1.9.595-3.06 0-1.16-.198-2.17-.595-3.03-.374-.88-.969-1.67-1.784-2.37-.792-.7-1.75-1.24-2.874-1.62-1.123-.4-2.411-.6-3.865-.6h-.958v15.24h.958zm27.899-5.94L28.36 3.6l-3.832 8.58h7.664zM36.124 21l-2.61-5.85H23.208L20.598 21h-3.402l9.348-21h3.634l9.348 21h-3.402zm18.328-8.79L62.777 0h3.93v21h-3.303V4.44l-7.433 10.89h-3.039l-7.4-10.89V21H42.23V0h3.931l8.292 12.21zM76 21h-4.526V0h4.525c1.784 0 3.458.28 5.021.84 1.586.54 2.907 1.29 3.964 2.25 1.08.98 1.905 2.08 2.478 3.3.595 1.2.892 2.57.892 4.11 0 1.54-.297 2.92-.892 4.14-.573 1.2-1.398 2.29-2.478 3.27-1.057.96-2.378 1.72-3.964 2.28-1.563.54-3.237.81-5.02.81zm-.232-2.88c1.453 0 2.742-.19 3.865-.57 1.123-.4 2.081-.95 2.874-1.65.815-.7 1.41-1.48 1.784-2.34.396-.88.594-1.9.594-3.06 0-1.16-.198-2.17-.594-3.03-.375-.88-.97-1.67-1.784-2.37-.793-.7-1.75-1.24-2.874-1.62-1.123-.4-2.412-.6-3.865-.6h-.958v15.24h.958zm27.898-5.94L99.835 3.6l-3.832 8.58h7.663zm3.931 8.82l-2.609-5.85H94.681L92.071 21H88.67l9.349-21h3.633L111 21h-3.403z"/></symbol>
<symbol id="dinner" viewBox="0 0 13 13">
<path d="M6.653.005c-1.068 1.118-1.64 2.408-1.59 3.901.04 1.163.457 2.21 1.211 3.133C7.807 8.917 10.01 9.403 13 8.503c-.561 2.277-3.482 4.803-7.125 4.315C2.03 12.303-.568 8.955.107 5.312.772 1.72 4.04-.114 6.653.005z"/></symbol>
<symbol id="menu" viewBox="0 0 21 17">
<path stroke="#fff" stroke-linecap="round" stroke-miterlimit="10" stroke-width="1.5" d="M1.056 8.594h18.577M1.056 15.766h18.577M1.056 1.42h18.577"/></symbol>
<symbol id="document" viewBox="0 0 20 18"><path d="M10.448 18c5.228 0 9.465-4.03 9.465-9s-4.237-9-9.465-9S.982 4.03.982 9s4.238 9 9.466 9z"/>
<path fill="#fff" d="M12.872 4.85c2.24.175 3.208 2.89 1.652 4.375-1.078 1.025-2.162 2.045-3.24 3.07-.136.13-.278.24-.478.115-.184-.12-.174-.29.031-.485.642-.61 1.289-1.215 1.93-1.825.41-.39.826-.775 1.23-1.165.884-.845.905-2.1.053-2.9-.857-.805-2.171-.79-3.066.045-1.43 1.34-2.87 2.67-4.296 4.015-.862.815-.536 2.12.61 2.435.59.165 1.105.015 1.541-.395a1477.716 1477.716 0 0 1 4.401-4.11c.358-.365.358-.875.006-1.21a.94.94 0 0 0-1.3-.01c-1.061.99-2.108 1.99-3.165 2.985-.158.15-.31.375-.578.165-.174-.135-.121-.295.168-.57 1.041-.985 2.077-1.97 3.124-2.95.873-.815 2.266-.455 2.56.655.132.5 0 .955-.378 1.315A349.7 349.7 0 0 1 9.17 12.61c-.836.765-2.161.715-2.955-.06-.81-.785-.81-2.025.026-2.815 1.13-1.07 2.267-2.13 3.408-3.19.789-.73 1.614-1.605 2.782-1.69.152-.01.3-.01.441 0V4.85z"/></symbol>
<symbol id="home" viewBox="0 0 22 22">
<path stroke="#fff" stroke-linecap="round" stroke-linejoin="round" stroke-width="1.5" d="M7.13 1.242H3.04c-.54 0-1.06.216-1.442.6A2.051 2.051 0 0 0 1 3.29v4.105c0 .544.215 1.066.597 1.452a2.04 2.04 0 0 0 1.443.606h4.09c.544 0 1.065-.216 1.45-.602.384-.386.6-.91.6-1.456V3.29a2.062 2.062 0 0 0-.604-1.449 2.046 2.046 0 0 0-1.446-.599zm11.36 0h-4.091c-.542 0-1.062.216-1.446.6a2.063 2.063 0 0 0-.604 1.448v4.105c0 .546.216 1.07.6 1.456.385.386.906.602 1.45.602h4.09a2.047 2.047 0 0 0 1.443-.606c.382-.386.597-.908.597-1.452V3.29a2.05 2.05 0 0 0-.598-1.448 2.036 2.036 0 0 0-1.442-.6zM7.13 12.633H3.04a2.047 2.047 0 0 0-1.443.607A2.062 2.062 0 0 0 1 14.692v4.105c0 .543.215 1.064.598 1.448.382.384.901.6 1.442.6h4.09a2.057 2.057 0 0 0 2.05-2.048v-4.105c0-.546-.216-1.07-.6-1.456a2.046 2.046 0 0 0-1.45-.603zm9.309 0a4.082 4.082 0 0 0-2.892 1.203 4.114 4.114 0 0 0 0 5.806 4.082 4.082 0 0 0 5.784 0 4.113 4.113 0 0 0 0-5.806 4.082 4.082 0 0 0-2.892-1.203z"/></symbol>
<symbol id="mypage" viewBox="0 0 23 23">
<path stroke="#fff" stroke-linecap="round" stroke-linejoin="round" stroke-width="1.5" d="M11.567 21.375c5.538 0 10.028-4.507 10.028-10.067 0-5.559-4.49-10.066-10.028-10.066S1.539 5.75 1.539 11.308c0 5.56 4.49 10.067 10.028 10.067z"/><path stroke="#fff" stroke-linecap="round" stroke-linejoin="round" stroke-width="1.5" d="M5.628 19.417a6.7 6.7 0 0 1 2.463-2.65 6.666 6.666 0 0 1 6.952 0 6.7 6.7 0 0 1 2.463 2.65m-5.939-6.99a3.594 3.594 0 0 0 3.587-3.602 3.595 3.595 0 0 0-3.587-3.601 3.595 3.595 0 0 0-3.588 3.601 3.594 3.594 0 0 0 3.588 3.602z"/></symbol>
<symbol id="partnership" viewBox="0 0 20 23"><path stroke="#fff" stroke-linecap="round" stroke-linejoin="round" stroke-width="2.5" d="M5.17 20.845h.012m10.968 0h.011"/><path stroke="#fff" stroke-linecap="round" stroke-linejoin="round" stroke-width="1.5" d="M2.101 5.243h13.824a4.209 4.209 0 0 1 1.63.252 1.831 1.831 0 0 1 1.077 1.182 3.95 3.95 0 0 1-.225 1.787c-.138.603-.263 1.258-.389 1.811a100.722 100.722 0 0 0-.777 3.775 3.1 3.1 0 0 1-.664 1.66 2.365 2.365 0 0 1-1.78.617H7.566a9.086 9.086 0 0 1-1.755 0 1.725 1.725 0 0 1-1.404-1.045 17.673 17.673 0 0 1-.488-2.138c-.1-.566-.226-1.133-.351-1.699A131.78 131.78 0 0 0 2.1 5.243zm0 0c-.325-1.334-.664-2.667-.99-4m16.744 9.8H3.48"/></symbol>
<symbol id="with_dankook" viewBox="0 0 22 21">
<path stroke="#fff" stroke-linecap="round" stroke-linejoin="round" stroke-width="1.5" d="M11.358 10.402a.699.699 0 0 0 .698-.7c0-.387-.312-.7-.697-.7a.699.699 0 0 0-.698.7c0 .386.312.7.697.7zm4.882 0a.699.699 0 0 0 .698-.7.699.699 0 0 0-1.395 0c0 .386.312.7.697.7zm-9.763 0a.699.699 0 0 0 .697-.7c0-.387-.312-.7-.697-.7a.699.699 0 0 0-.698.7.7.7 0 0 0 .698.7z"/><path stroke="#fff" stroke-linecap="round" stroke-linejoin="round" stroke-width="1.5" d="M21.122 9.98v3.36a4.247 4.247 0 0 1-1.224 2.977 4.39 4.39 0 0 1-1.362.91 4.323 4.323 0 0 1-1.594.319h-2.797l-2.3 2.31a.844.844 0 0 1-.223.159.685.685 0 0 1-.527 0 .843.843 0 0 1-.222-.16l-2.301-2.31H5.775a4.214 4.214 0 0 1-2.956-1.228 4.247 4.247 0 0 1-1.224-2.978V6.346a4.25 4.25 0 0 1 1.236-2.997 4.214 4.214 0 0 1 2.986-1.242h6.597"/><path stroke="#fff" stroke-linecap="round" stroke-miterlimit="10" stroke-width="1.5" d="M18.24 1.302V6.6m-2.634-2.643h5.278"/></symbol>
<symbol id="chevron-right" viewBox="0 -960 960 960">
<path d="M504-480L320-664l56-56 240 240-240 240-56-56 184-184z"/></symbol>
<symbol id="arrow_right" viewBox="0 0 12 17">
<path stroke="#fff" stroke-linecap="round" d="M1 16l10-7.144L1 1"/></symbol>
<symbol id="arrow_down" viewBox="0 0 21 13">
<path stroke="#fff" stroke-linecap="round" d="M1 1l9.049 11L20 1"/></symbol>
<symbol id="breakfast" viewBox="0 0 15 15">
<path stroke="#000" d="M7.496 4.01c-1.759-.016-3.148 1.36-3.145 2.965L7.496 4.01zm0 0c1.865.017 3.172 1.337 3.184 2.936.013 1.597-1.366 2.932-3.162 2.934-1.772.001-3.163-1.34-3.167-2.905L7.496 4.01z"/><path d="M6.979 1.485c0-.325-.002-.65 0-.975.003-.286.164-.461.459-.503.304-.043.49.11.586.373.065.179.066.364.065.55-.003.477.013.953-.008 1.429-.017.373-.263.597-.59.59-.34-.007-.51-.214-.512-.627-.002-.28 0-.558 0-.836zm5.99 10.168a.494.494 0 0 1-.324.47c-.198.081-.39.075-.552-.073-.505-.464-1.017-.923-1.508-1.399a.499.499 0 0 1 .018-.754c.205-.172.552-.162.776.044.472.43.933.871 1.4 1.307a.56.56 0 0 1 .19.405zm-5.989.907c0-.313-.003-.626 0-.94.003-.27.158-.44.43-.49.278-.051.486.065.592.311a.864.864 0 0 1 .081.335c-.003.591.034 1.183-.036 1.773-.04.34-.237.527-.563.516-.304-.01-.496-.205-.503-.53-.008-.325-.002-.65-.001-.975zM1.561 7.557c-.322 0-.644.009-.966-.002-.34-.012-.59-.236-.595-.512-.005-.265.214-.506.546-.516.692-.02 1.387-.021 2.08.002.331.012.525.254.508.537-.016.28-.234.476-.57.488-.333.011-.668.002-1.003.003zm11.872 0c-.31 0-.62.008-.928-.003-.379-.013-.635-.221-.645-.504-.01-.297.25-.526.649-.533a54.025 54.025 0 0 1 1.856-.001c.4.006.646.227.635.54-.011.294-.252.489-.64.5-.308.009-.618.002-.928.001zm-.465-5.154a.52.52 0 0 1-.18.408c-.456.429-.907.863-1.371 1.285-.28.254-.601.264-.827.05-.232-.218-.218-.51.054-.771.461-.442.93-.877 1.4-1.31.161-.148.348-.209.578-.115.217.09.335.232.346.453zM2.564 12.172c-.185-.015-.359-.096-.45-.28-.094-.19-.117-.396.048-.556.5-.483 1.004-.964 1.525-1.427.228-.202.504-.18.74.016.22.184.229.493 0 .717-.48.469-.977.924-1.47 1.381a.548.548 0 0 1-.394.149zm2.029-8.384c-.036.194-.102.36-.308.45-.2.088-.408.087-.558-.048a33.844 33.844 0 0 1-1.574-1.476c-.192-.195-.16-.46.055-.66.236-.219.505-.194.734-.007.298.244.568.518.849.78.202.188.4.38.604.565a.628.628 0 0 1 .198.396z"/></symbol>
<symbol id="dan_dining" viewBox="0 0 60 61">
<path fill="url(#a)" d="M0 60.2h60V.2H0v60z"/><defs><pattern id="a" width="1" height="1" patternContentUnits="objectBoundingBox"><use transform="scale(.01563)" xlink:href="#b"/></pattern></defs></symbol>
<symbol id="profile" viewBox="0 -960 960 960">
<path d="M480-480q-66 0-113-47t-47-113q0-66 47-113t113-47q66 0 113 47t47 113q0 66-47 113t-113 47zM160-160v-112q0-34 17.5-62.5T224-378q62-31 126-46.5T480-440q66 0 130 15.5T736-378q29 15 46.5 43.5T800-272v112H160zm80-80h480v-32q0-11-5.5-20T700-306q-54-27-109-40.5T480-360q-56 0-111 13.5T260-306q-9 5-14.5 14t-5.5 20v32zm240-320q33 0 56.5-23.5T560-640q0-33-23.5-56.5T480-720q-33 0-56.5 23.5T400-640q0 33 23.5 56.5T480-560zm0-80zm0 400z"/></symbol>
<symbol id="signup_success" viewBox="0 0 38 38"><circle cx="19" cy="19" r="19" fill="#2755A9"/><path stroke="#fff" stroke-linecap="round" stroke-width="2" d="M9.5 17.966l6.786 7.82L28.5 10.857"/></symbol>
<symbol id="dan_eats" viewBox="0 0 60 61">
<path fill="url(#a)" d="M0 60.2h60V.2H0v60z"/><defs><pattern id="a" width="1" height="1" patternContentUnits="objectBoundingBox"><use transform="scale(.01563)" xlink:href="#b"/></pattern></defs></symbol>
<symbol id="dan_roommate" viewBox="0 0 60 61">
<path fill="url(#a)" d="M0 60.2h60V.2H0v60z"/><defs><pattern id="a" width="1" height="1" patternContentUnits="objectBoundingBox"><use transform="scale(.01563)" xlink:href="#b"/></pattern></defs></symbol>
<symbol id="dan_transaction" viewBox="0 0 60 61">
<path fill="url(#a)" d="M0 60.2h60V.2H0v60z"/><defs><pattern id="a" width="1" height="1" patternContentUnits="objectBoundingBox"><use transform="scale(.01563)" xlink:href="#b"/></pattern></defs></symbol>
</svg>