<svg xmlns="http://www.w3.org/2000/svg" xmlns:xlink="http://www.w3.org/1999/xlink">
<symbol id="arrow_back" viewBox="0 0 19 24">
<path fill="currentColor" d="M17 13.5a1.5 1.5 0 0 0 0-3v3zM.94 10.94a1.5 1.5 0 0 0 0 2.12l9.545 9.547a1.5 1.5 0 1 0 2.122-2.122L4.12 12l8.486-8.485a1.5 1.5 0 1 0-2.122-2.122L.94 10.94zM17 10.5H2v3h15v-3z"/></symbol>
<symbol id="logo" viewBox="0 0 111 21">
<path fill="currentColor" d="M4.526 21H0V0h4.526c1.784 0 3.457.28 5.02.84 1.587.54 2.908 1.29 3.965 2.25 1.079.98 1.905 2.08 2.478 3.3.594 1.2.891 2.57.891 4.11 0 1.54-.297 2.92-.891 4.14-.573 1.2-1.399 2.29-2.478 3.27-1.057.96-2.378 1.72-3.964 2.28-1.564.54-3.238.81-5.021.81zm-.232-2.88c1.454 0 2.742-.19 3.865-.57 1.124-.4 2.082-.95 2.874-1.65.815-.7 1.41-1.48 1.784-2.34.397-.88.595-1.9.595-3.06 0-1.16-.198-2.17-.595-3.03-.374-.88-.969-1.67-1.784-2.37-.792-.7-1.75-1.24-2.874-1.62-1.123-.4-2.411-.6-3.865-.6h-.958v15.24h.958zm27.899-5.94L28.36 3.6l-3.832 8.58h7.664zM36.124 21l-2.61-5.85H23.208L20.598 21h-3.402l9.348-21h3.634l9.348 21h-3.402zm18.328-8.79L62.777 0h3.93v21h-3.303V4.44l-7.433 10.89h-3.039l-7.4-10.89V21H42.23V0h3.931l8.292 12.21zM76 21h-4.526V0h4.525c1.784 0 3.458.28 5.021.84 1.586.54 2.907 1.29 3.964 2.25 1.08.98 1.905 2.08 2.478 3.3.595 1.2.892 2.57.892 4.11 0 1.54-.297 2.92-.892 4.14-.573 1.2-1.398 2.29-2.478 3.27-1.057.96-2.378 1.72-3.964 2.28-1.563.54-3.237.81-5.02.81zm-.232-2.88c1.453 0 2.742-.19 3.865-.57 1.123-.4 2.081-.95 2.874-1.65.815-.7 1.41-1.48 1.784-2.34.396-.88.594-1.9.594-3.06 0-1.16-.198-2.17-.594-3.03-.375-.88-.97-1.67-1.784-2.37-.793-.7-1.75-1.24-2.874-1.62-1.123-.4-2.412-.6-3.865-.6h-.958v15.24h.958zm27.898-5.94L99.835 3.6l-3.832 8.58h7.663zm3.931 8.82l-2.609-5.85H94.681L92.071 21H88.67l9.349-21h3.633L111 21h-3.403z"/></symbol>
<symbol id="dinner" viewBox="0 0 13 13">
<path d="M6.653.005c-1.068 1.118-1.64 2.408-1.59 3.901.04 1.163.457 2.21 1.211 3.133C7.807 8.917 10.01 9.403 13 8.503c-.561 2.277-3.482 4.803-7.125 4.315C2.03 12.303-.568 8.955.107 5.312.772 1.72 4.04-.114 6.653.005z"/></symbol>
<symbol id="menu" viewBox="0 0 21 17">
<path stroke="currentColor" stroke-linecap="round" stroke-miterlimit="10" stroke-width="1.5" d="M1.056 8.594h18.577M1.056 15.766h18.577M1.056 1.42h18.577"/></symbol>
<symbol id="document" viewBox="0 0 20 18"><path d="M10.448 18c5.228 0 9.465-4.03 9.465-9s-4.237-9-9.465-9S.982 4.03.982 9s4.238 9 9.466 9z"/>
<path fill="currentColor" d="M12.872 4.85c2.24.175 3.208 2.89 1.652 4.375-1.078 1.025-2.162 2.045-3.24 3.07-.136.13-.278.24-.478.115-.184-.12-.174-.29.031-.485.642-.61 1.289-1.215 1.93-1.825.41-.39.826-.775 1.23-1.165.884-.845.905-2.1.053-2.9-.857-.805-2.171-.79-3.066.045-1.43 1.34-2.87 2.67-4.296 4.015-.862.815-.536 2.12.61 2.435.59.165 1.105.015 1.541-.395a1477.716 1477.716 0 0 1 4.401-4.11c.358-.365.358-.875.006-1.21a.94.94 0 0 0-1.3-.01c-1.061.99-2.108 1.99-3.165 2.985-.158.15-.31.375-.578.165-.174-.135-.121-.295.168-.57 1.041-.985 2.077-1.97 3.124-2.95.873-.815 2.266-.455 2.56.655.132.5 0 .955-.378 1.315A349.7 349.7 0 0 1 9.17 12.61c-.836.765-2.161.715-2.955-.06-.81-.785-.81-2.025.026-2.815 1.13-1.07 2.267-2.13 3.408-3.19.789-.73 1.614-1.605 2.782-1.69.152-.01.3-.01.441 0V4.85z"/></symbol>
<symbol id="home" viewBox="0 0 22 22">
<path stroke="currentColor" stroke-linecap="round" stroke-linejoin="round" stroke-width="1.5" d="M7.13 1.242H3.04c-.54 0-1.06.216-1.442.6A2.051 2.051 0 0 0 1 3.29v4.105c0 .544.215 1.066.597 1.452a2.04 2.04 0 0 0 1.443.606h4.09c.544 0 1.065-.216 1.45-.602.384-.386.6-.91.6-1.456V3.29a2.062 2.062 0 0 0-.604-1.449 2.046 2.046 0 0 0-1.446-.599zm11.36 0h-4.091c-.542 0-1.062.216-1.446.6a2.063 2.063 0 0 0-.604 1.448v4.105c0 .546.216 1.07.6 1.456.385.386.906.602 1.45.602h4.09a2.047 2.047 0 0 0 1.443-.606c.382-.386.597-.908.597-1.452V3.29a2.05 2.05 0 0 0-.598-1.448 2.036 2.036 0 0 0-1.442-.6zM7.13 12.633H3.04a2.047 2.047 0 0 0-1.443.607A2.062 2.062 0 0 0 1 14.692v4.105c0 .543.215 1.064.598 1.448.382.384.901.6 1.442.6h4.09a2.057 2.057 0 0 0 2.05-2.048v-4.105c0-.546-.216-1.07-.6-1.456a2.046 2.046 0 0 0-1.45-.603zm9.309 0a4.082 4.082 0 0 0-2.892 1.203 4.114 4.114 0 0 0 0 5.806 4.082 4.082 0 0 0 5.784 0 4.113 4.113 0 0 0 0-5.806 4.082 4.082 0 0 0-2.892-1.203z"/></symbol>
<symbol id="mypage" viewBox="0 0 23 23">
<path stroke="currentColor" stroke-linecap="round" stroke-linejoin="round" stroke-width="1.5" d="M11.567 21.375c5.538 0 10.028-4.507 10.028-10.067 0-5.559-4.49-10.066-10.028-10.066S1.539 5.75 1.539 11.308c0 5.56 4.49 10.067 10.028 10.067z"/><path stroke="currentColor" stroke-linecap="round" stroke-linejoin="round" stroke-width="1.5" d="M5.628 19.417a6.7 6.7 0 0 1 2.463-2.65 6.666 6.666 0 0 1 6.952 0 6.7 6.7 0 0 1 2.463 2.65m-5.939-6.99a3.594 3.594 0 0 0 3.587-3.602 3.595 3.595 0 0 0-3.587-3.601 3.595 3.595 0 0 0-3.588 3.601 3.594 3.594 0 0 0 3.588 3.602z"/></symbol>
<symbol id="partnership" viewBox="0 0 20 23">
<path stroke="currentColor" stroke-linecap="round" stroke-linejoin="round" stroke-width="2.5" d="M5.17 20.845h.012m10.968 0h.011"/><path stroke="currentColor" stroke-linecap="round" stroke-linejoin="round" stroke-width="1.5" d="M2.101 5.243h13.824a4.209 4.209 0 0 1 1.63.252 1.831 1.831 0 0 1 1.077 1.182 3.95 3.95 0 0 1-.225 1.787c-.138.603-.263 1.258-.389 1.811a100.722 100.722 0 0 0-.777 3.775 3.1 3.1 0 0 1-.664 1.66 2.365 2.365 0 0 1-1.78.617H7.566a9.086 9.086 0 0 1-1.755 0 1.725 1.725 0 0 1-1.404-1.045 17.673 17.673 0 0 1-.488-2.138c-.1-.566-.226-1.133-.351-1.699A131.78 131.78 0 0 0 2.1 5.243zm0 0c-.325-1.334-.664-2.667-.99-4m16.744 9.8H3.48"/></symbol>
<symbol id="with_dankook" viewBox="0 0 22 21">
<path stroke="currentColor" stroke-linecap="round" stroke-linejoin="round" stroke-width="1.5" d="M11.358 10.402a.699.699 0 0 0 .698-.7c0-.387-.312-.7-.697-.7a.699.699 0 0 0-.698.7c0 .386.312.7.697.7zm4.882 0a.699.699 0 0 0 .698-.7.699.699 0 0 0-1.395 0c0 .386.312.7.697.7zm-9.763 0a.699.699 0 0 0 .697-.7c0-.387-.312-.7-.697-.7a.699.699 0 0 0-.698.7.7.7 0 0 0 .698.7z"/><path stroke="currentColor" stroke-linecap="round" stroke-linejoin="round" stroke-width="1.5" d="M21.122 9.98v3.36a4.247 4.247 0 0 1-1.224 2.977 4.39 4.39 0 0 1-1.362.91 4.323 4.323 0 0 1-1.594.319h-2.797l-2.3 2.31a.844.844 0 0 1-.223.159.685.685 0 0 1-.527 0 .843.843 0 0 1-.222-.16l-2.301-2.31H5.775a4.214 4.214 0 0 1-2.956-1.228 4.247 4.247 0 0 1-1.224-2.978V6.346a4.25 4.25 0 0 1 1.236-2.997 4.214 4.214 0 0 1 2.986-1.242h6.597"/><path stroke="currentColor" stroke-linecap="round" stroke-miterlimit="10" stroke-width="1.5" d="M18.24 1.302V6.6m-2.634-2.643h5.278"/></symbol>
<symbol id="chevron-right" viewBox="0 -960 960 960">
<path d="M504-480L320-664l56-56 240 240-240 240-56-56 184-184z"/></symbol>
<symbol id="arrow_right" viewBox="0 0 12 17">
<path stroke="currentColor" stroke-linecap="round" d="M1 16l10-7.144L1 1"/></symbol>
<symbol id="arrow_down" viewBox="0 0 21 13">
<path stroke="currentColor" stroke-linecap="round" d="M1 1l9.049 11L20 1"/></symbol>
<symbol id="lunch" viewBox="0 0 15 15">
<path stroke="currentColor" d="M7.496 4.01c-1.759-.016-3.148 1.36-3.145 2.965L7.496 4.01zm0 0c1.865.017 3.172 1.337 3.184 2.936.013 1.597-1.366 2.932-3.162 2.934-1.772.001-3.163-1.34-3.167-2.905L7.496 4.01z"/><path d="M6.979 1.485c0-.325-.002-.65 0-.975.003-.286.164-.461.459-.503.304-.043.49.11.586.373.065.179.066.364.065.55-.003.477.013.953-.008 1.429-.017.373-.263.597-.59.59-.34-.007-.51-.214-.512-.627-.002-.28 0-.558 0-.836zm5.99 10.168a.494.494 0 0 1-.324.47c-.198.081-.39.075-.552-.073-.505-.464-1.017-.923-1.508-1.399a.499.499 0 0 1 .018-.754c.205-.172.552-.162.776.044.472.43.933.871 1.4 1.307a.56.56 0 0 1 .19.405zm-5.989.907c0-.313-.003-.626 0-.94.003-.27.158-.44.43-.49.278-.051.486.065.592.311a.864.864 0 0 1 .081.335c-.003.591.034 1.183-.036 1.773-.04.34-.237.527-.563.516-.304-.01-.496-.205-.503-.53-.008-.325-.002-.65-.001-.975zM1.561 7.557c-.322 0-.644.009-.966-.002-.34-.012-.59-.236-.595-.512-.005-.265.214-.506.546-.516.692-.02 1.387-.021 2.08.002.331.012.525.254.508.537-.016.28-.234.476-.57.488-.333.011-.668.002-1.003.003zm11.872 0c-.31 0-.62.008-.928-.003-.379-.013-.635-.221-.645-.504-.01-.297.25-.526.649-.533a54.025 54.025 0 0 1 1.856-.001c.4.006.646.227.635.54-.011.294-.252.489-.64.5-.308.009-.618.002-.928.001zm-.465-5.154a.52.52 0 0 1-.18.408c-.456.429-.907.863-1.371 1.285-.28.254-.601.264-.827.05-.232-.218-.218-.51.054-.771.461-.442.93-.877 1.4-1.31.161-.148.348-.209.578-.115.217.09.335.232.346.453zM2.564 12.172c-.185-.015-.359-.096-.45-.28-.094-.19-.117-.396.048-.556.5-.483 1.004-.964 1.525-1.427.228-.202.504-.18.74.016.22.184.229.493 0 .717-.48.469-.977.924-1.47 1.381a.548.548 0 0 1-.394.149zm2.029-8.384c-.036.194-.102.36-.308.45-.2.088-.408.087-.558-.048a33.844 33.844 0 0 1-1.574-1.476c-.192-.195-.16-.46.055-.66.236-.219.505-.194.734-.007.298.244.568.518.849.78.202.188.4.38.604.565a.628.628 0 0 1 .198.396z"/>
</symbol>
<symbol id="success" viewBox="0 0 38 38"><circle cx="19" cy="19" r="19"/>
<path stroke="#fff" stroke-linecap="round" stroke-width="2" d="M9.5 17.966l6.786 7.82L28.5 10.857"/>
</symbol>
<symbol id="drop_up_circle" viewBox="0 0 19 19"><circle cx="9.5" cy="9.5" r="9.5"/>
<path fill="#fff" d="M9.5 5l4.33 6.75H5.17L9.5 5z"/>
</symbol>
<symbol id="drop_down_circle" viewBox="0 0 19 19"><circle cx="9.5" cy="9.5" r="9.5"/>
<path fill="#fff" d="M9.5 14L5.17 7.25h8.66L9.5 14z"/>
</symbol>
<symbol id="logo_google_playstore" viewBox="0 0 512 512">
    <path d="M48 59.49v393a4.33 4.33 0 0 0 7.37 3.07L260 256 55.37 56.42A4.33 4.33 0 0 0 48 59.49zM345.8 174L89.22 32.64l-.16-.09c-4.42-2.4-8.62 3.58-5 7.06l201.13 192.32zM84.08 472.39c-3.64 3.48.56 9.46 5 7.06l.16-.09L345.8 338l-60.61-57.95zM449.38 231l-71.65-39.46L310.36 256l67.37 64.43L449.38 281c19.49-10.77 19.49-39.23 0-50z"/>
</symbol>
<symbol id="logo_apple" viewBox="0 0 22.77 22.77">
    <path d="M15.769 0h.162c.13 1.606-.483 2.806-1.228 3.675-.731.863-1.732 1.7-3.351 1.573-.108-1.583.506-2.694 1.25-3.561C13.292.879 14.557.16 15.769 0zm4.901 16.716v.045c-.455 1.378-1.104 2.559-1.896 3.655-.723.995-1.609 2.334-3.191 2.334-1.367 0-2.275-.879-3.676-.903-1.482-.024-2.297.735-3.652.926h-.462c-.995-.144-1.798-.932-2.383-1.642-1.725-2.098-3.058-4.808-3.306-8.276v-1.019c.105-2.482 1.311-4.5 2.914-5.478.846-.52 2.009-.963 3.304-.765.555.086 1.122.276 1.619.464.471.181 1.06.502 1.618.485.378-.011.754-.208 1.135-.347 1.116-.403 2.21-.865 3.652-.648 1.733.262 2.963 1.032 3.723 2.22-1.466.933-2.625 2.339-2.427 4.74.176 2.181 1.444 3.457 3.028 4.209z"/>
</symbol>

<symbol id="arrow_right" viewBox="0 0 512 512">
<path d="M256 8c137 0 248 111 248 248S393 504 256 504 8 393 8 256 119 8 256 8zm113.9 231L234.4 103.5c-9.4-9.4-24.6-9.4-33.9 0l-17 17c-9.4 9.4-9.4 24.6 0 33.9L285.1 256 183.5 357.6c-9.4 9.4-9.4 24.6 0 33.9l17 17c9.4 9.4 24.6 9.4 33.9 0L369.9 273c9.4-9.4 9.4-24.6 0-34z"/>
</symbol>


<symbol id="arrow_left" viewBox="0 0 512 512">
<path d="M256 504C119 504 8 393 8 256S119 8 256 8s248 111 248 248-111 248-248 248zM142.1 273l135.5 135.5c9.4 9.4 24.6 9.4 33.9 0l17-17c9.4-9.4 9.4-24.6 0-33.9L226.9 256l101.6-101.6c9.4-9.4 9.4-24.6 0-33.9l-17-17c-9.4-9.4-24.6-9.4-33.9 0L142.1 239c-9.4 9.4-9.4 24.6 0 34z"/>
</symbol>
<symbol id="male_icon" viewBox="0 0 512 512"><path fill="#fefefe" d="M256 0c70.69 0 134.69 28.655 181.018 74.982C483.345 121.31 512 185.31 512 256s-28.655 134.69-74.982 181.018C390.69 483.345 326.69 512 256 512s-134.69-28.655-181.018-74.982C28.655 390.69 0 326.69 0 256S28.655 121.31 74.982 74.982C121.31 28.655 185.31 0 256 0zm-49.371 316.575c-.992-1.286 2.594-10.118 3.443-11.546-9.722-8.651-17.404-17.379-19.041-35.34l-1.043.022c-2.408-.032-4.729-.586-6.903-1.825-3.481-1.979-5.93-5.379-7.583-9.212-3.5-8.043-15.031-34.738 2.537-32.628-9.823-18.345 12.409-49.684-25.935-61.275 31.46-39.845 97.839-101.281 146.483-39.654 53.245 5.16 69.853 68.437 34 103.093 2.101.076 4.08.56 5.832 1.498 6.665 3.57 6.884 11.318 5.132 17.819-1.733 5.429-3.934 9.104-6.01 14.397-2.524 7.147-6.215 8.478-13.345 7.708-.362 17.67-8.528 26.343-19.518 36.724l3.007 10.187c-14.737 31.261-75.957 32.518-101.056.032zM78.752 394.224c12.076-51.533 45.656-33.396 110.338-73.867 22.982 47.952 116.386 51.437 135.54 0 55.35 35.384 98.967 20.923 109.958 72.138 28.965-37.841 46.176-85.158 46.176-136.495 0-62.068-25.158-118.26-65.83-158.934C374.26 56.394 318.068 31.236 256 31.236S137.74 56.394 97.066 97.066C56.394 137.74 31.236 193.932 31.236 256c0 52.123 17.744 100.099 47.516 138.224z"/></symbol>
<symbol id="female_icon" viewBox="0 0 512 512"><path fill="#fefefe" d="M256 0c70.69 0 134.69 28.655 181.018 74.982C483.345 121.31 512 185.31 512 256s-28.655 134.69-74.982 181.018C390.69 483.345 326.69 512 256 512s-134.69-28.655-181.018-74.982C28.655 390.69 0 326.69 0 256S28.655 121.31 74.982 74.982C121.31 28.655 185.31 0 256 0zm83.858 360.495c-8.946-17.959-20.291-33.187-33.495-47.498 86.303 33.392 107.758 28.216 126.204 82.097 30.184-38.263 48.197-86.574 48.197-139.094 0-62.068-25.158-118.26-65.83-158.934C374.26 56.394 318.068 31.236 256 31.236S137.74 56.394 97.066 97.066C56.394 137.74 31.236 193.932 31.236 256c0 52.461 17.973 100.722 48.095 138.965 18.247-55.6 36.446-48.494 122.961-81.968-13.204 14.311-24.549 29.539-33.5 47.498l25.915-.635 58.179 46.465 61.058-46.465 25.914.635zm-127.87-64.325v15.645l-15.421 25.895 57.727 45.55 57.794-45.959-20.199-26.986v-14.557c20.758-1.106 38.585-2.954 48.454-5.364 12.753-3.109 23.387-7.763 30.725-14.781-11.447-5.501-18.761-14.911-22.976-27.214-9.796-28.591-.507-60.756-4.884-91.797-5.864-41.569-33.021-55.47-59.976-52.595-34.379-28.257-96.069-11.754-112.764 36.542-8.433 24.396-3.3 44.822-4.204 69.543-1.22 33.255-9.873 55.471-28.678 62.555 6.51 7.745 15.82 13.696 28.08 17.699 9.152 2.987 26.194 4.87 46.322 5.824z"/></symbol>
</svg>