<svg width="23" height="23" viewBox="0 0 23 23" fill="none" xmlns="http://www.w3.org/2000/svg">
<path d="M11.5668 21.3745C17.105 21.3745 21.5946 16.8677 21.5946 11.3084C21.5946 5.74897 17.105 1.24219 11.5668 1.24219C6.02866 1.24219 1.53906 5.74897 1.53906 11.3084C1.53906 16.8677 6.02866 21.3745 11.5668 21.3745Z" stroke="white" stroke-width="1.5" stroke-linecap="round" stroke-linejoin="round"/>
<path d="M5.62842 19.4173C6.19151 18.3238 7.04337 17.4068 8.0908 16.7667C9.13821 16.1266 10.3408 15.7881 11.5671 15.7881C12.7933 15.7881 13.9959 16.1266 15.0433 16.7667C16.0909 17.4068 16.9426 18.3238 17.5057 19.4173" stroke="white" stroke-width="1.5" stroke-linecap="round" stroke-linejoin="round"/>
<path d="M11.5667 12.4265C13.5482 12.4265 15.1544 10.8142 15.1544 8.82508C15.1544 6.83605 13.5482 5.22363 11.5667 5.22363C9.5852 5.22363 7.979 6.83605 7.979 8.82508C7.979 10.8142 9.5852 12.4265 11.5667 12.4265Z" stroke="white" stroke-width="1.5" stroke-linecap="round" stroke-linejoin="round"/>
</svg>
