<svg width="20" height="23" viewBox="0 0 20 23" fill="none" xmlns="http://www.w3.org/2000/svg">
<path d="M5.1709 20.8447H5.18191" stroke="white" stroke-width="2.5" stroke-linecap="round" stroke-linejoin="round"/>
<path d="M16.1504 20.8447H16.1614" stroke="white" stroke-width="2.5" stroke-linecap="round" stroke-linejoin="round"/>
<path d="M2.10143 5.24292H7.35278C10.2102 5.24292 13.0677 5.24292 15.9252 5.24292C16.4796 5.21854 17.0332 5.30405 17.5546 5.49454C17.8115 5.59707 18.042 5.75676 18.2288 5.9616C18.4154 6.16642 18.5534 6.41108 18.6324 6.67714C18.6957 7.28214 18.6185 7.89362 18.4068 8.46363C18.2689 9.06741 18.1437 9.72171 18.0183 10.2752C17.7425 11.5334 17.4669 12.7915 17.2413 14.0496C17.1876 14.6568 16.9565 15.2345 16.577 15.7102C16.338 15.9297 16.057 16.0976 15.7508 16.2036C15.4446 16.3095 15.1202 16.3515 14.7974 16.3266C13.7194 16.3266 12.6291 16.3266 11.5388 16.3266H7.56573C6.98228 16.3832 6.39469 16.3832 5.81118 16.3266C5.50593 16.2933 5.21502 16.1792 4.96833 15.9956C4.72164 15.8121 4.52807 15.5659 4.40749 15.2825C4.20043 14.5805 4.03719 13.8661 3.9187 13.1438C3.81845 12.5775 3.69311 12.0115 3.56779 11.4454C3.12913 9.34428 2.62781 7.26844 2.10143 5.24292ZM2.10143 5.24292C1.77557 3.90934 1.43719 2.57576 1.11133 1.24219" stroke="white" stroke-width="1.5" stroke-linecap="round" stroke-linejoin="round"/>
<path d="M17.8552 11.0425H3.47998" stroke="white" stroke-width="1.5" stroke-linecap="round" stroke-linejoin="round"/>
</svg>
