<svg width="22" height="21" viewBox="0 0 22 21" fill="none" xmlns="http://www.w3.org/2000/svg">
<path d="M11.3585 10.4017C11.7437 10.4017 12.0559 10.0883 12.0559 9.70165C12.0559 9.315 11.7437 9.00146 11.3585 9.00146C10.9734 9.00146 10.6611 9.315 10.6611 9.70165C10.6611 10.0883 10.9734 10.4017 11.3585 10.4017Z" stroke="white" stroke-width="1.5" stroke-linecap="round" stroke-linejoin="round"/>
<path d="M16.2404 10.4017C16.6255 10.4017 16.9378 10.0883 16.9378 9.70165C16.9378 9.315 16.6255 9.00146 16.2404 9.00146C15.8552 9.00146 15.543 9.315 15.543 9.70165C15.543 10.0883 15.8552 10.4017 16.2404 10.4017Z" stroke="white" stroke-width="1.5" stroke-linecap="round" stroke-linejoin="round"/>
<path d="M6.47671 10.4017C6.8619 10.4017 7.17414 10.0883 7.17414 9.70165C7.17414 9.315 6.8619 9.00146 6.47671 9.00146C6.09154 9.00146 5.7793 9.315 5.7793 9.70165C5.7793 10.0883 6.09154 10.4017 6.47671 10.4017Z" stroke="white" stroke-width="1.5" stroke-linecap="round" stroke-linejoin="round"/>
<path d="M21.1225 9.98021V13.3391C21.1206 14.4547 20.6806 15.5245 19.8981 16.3166C19.5051 16.7033 19.0432 17.0124 18.5364 17.2278C18.0298 17.4336 17.489 17.5415 16.9425 17.5457H14.1453L11.8442 19.8556C11.7794 19.9203 11.7045 19.974 11.6225 20.0146C11.5389 20.0495 11.4492 20.0676 11.3586 20.0676C11.268 20.0676 11.1783 20.0495 11.0947 20.0146C11.0127 19.974 10.9379 19.9203 10.8731 19.8556L8.57195 17.5457H5.77473C4.66707 17.5411 3.6056 17.0996 2.81917 16.3166C2.03658 15.5245 1.59662 14.4547 1.59473 13.3391V6.34581C1.59473 5.22171 2.03957 4.14367 2.83138 3.34881C3.62321 2.55397 4.69714 2.10742 5.81695 2.10742H12.4142" stroke="white" stroke-width="1.5" stroke-linecap="round" stroke-linejoin="round"/>
<path d="M18.2393 1.30176V6.59974" stroke="white" stroke-width="1.5" stroke-miterlimit="10" stroke-linecap="round"/>
<path d="M15.606 3.95654H20.8837" stroke="white" stroke-width="1.5" stroke-miterlimit="10" stroke-linecap="round"/>
</svg>
